<svg width="25" height="25" viewBox="0 0 25 25" fill="none" xmlns="http://www.w3.org/2000/svg">
<rect x="2" y="3" width="20" height="20" rx="5" fill="#A550FE"/>
<path d="M12.8 19.7997C13.693 19.7997 14.5772 19.6238 15.4022 19.2821C16.2273 18.9404 16.9769 18.4395 17.6083 17.808C18.2398 17.1766 18.7406 16.427 19.0824 15.602C19.4241 14.7769 19.6 13.8927 19.6 12.9997C19.6 12.1067 19.4241 11.2225 19.0824 10.3975C18.7406 9.57245 18.2398 8.82282 17.6083 8.19138C16.9769 7.55994 16.2273 7.05906 15.4022 6.71733C14.5772 6.37559 13.693 6.19971 12.8 6.19971L12.8 7.81736C13.4806 7.81736 14.1544 7.9514 14.7832 8.21184C15.412 8.47228 15.9832 8.85401 16.4645 9.33523C16.9457 9.81646 17.3274 10.3878 17.5879 11.0165C17.8483 11.6453 17.9823 12.3192 17.9823 12.9997C17.9823 13.6803 17.8483 14.3542 17.5879 14.9829C17.3274 15.6117 16.9457 16.183 16.4645 16.6642C15.9832 17.1454 15.412 17.5271 14.7832 17.7876C14.1544 18.048 13.4806 18.1821 12.8 18.1821L12.8 19.7997Z" fill="white"/>
<path d="M11.1999 6.19995C10.3069 6.19995 9.42267 6.37584 8.59766 6.71757C7.77264 7.0593 7.02301 7.56019 6.39158 8.19163C5.76014 8.82306 5.25925 9.57269 4.91752 10.3977C4.57579 11.2227 4.3999 12.107 4.3999 13C4.3999 13.8929 4.57579 14.7772 4.91752 15.6022C5.25925 16.4272 5.76014 17.1768 6.39158 17.8083C7.02301 18.4397 7.77264 18.9406 8.59766 19.2823C9.42267 19.6241 10.3069 19.8 11.1999 19.8L11.1999 18.1823C10.5193 18.1823 9.84546 18.0483 9.2167 17.7878C8.58795 17.5274 8.01665 17.1457 7.53543 16.6644C7.0542 16.1832 6.67247 15.6119 6.41204 14.9832C6.1516 14.3544 6.01755 13.6805 6.01755 13C6.01755 12.3194 6.1516 11.6455 6.41204 11.0168C6.67247 10.388 7.0542 9.8167 7.53543 9.33548C8.01665 8.85425 8.58795 8.47252 9.2167 8.21209C9.84546 7.95165 10.5193 7.8176 11.1999 7.8176L11.1999 6.19995Z" fill="white"/>
</svg>
